<svg width="80" height="21" viewBox="0 0 80 21" fill="none" xmlns="http://www.w3.org/2000/svg">
<path fill-rule="evenodd" clip-rule="evenodd" d="M11.1553 20.7137C11.1327 20.7944 11.1101 20.8752 11.088 20.9559V21H12.8925C12.9677 21 13.0164 20.9824 13.0164 20.9119C13.1358 20.4715 13.2556 20.031 13.3755 19.5906C13.6154 18.7095 13.8552 17.8284 14.0911 16.9473C14.0927 16.9312 14.0976 16.9156 14.1055 16.9015C14.1133 16.8874 14.124 16.875 14.1368 16.8651C14.1497 16.8552 14.1644 16.848 14.1801 16.844C14.1958 16.8399 14.2122 16.8391 14.2282 16.8416H20.8624L21.9991 20.9736H23.8788V20.9383C23.6488 20.0397 23.4144 19.1278 23.1844 18.2468L21.4153 11.3573L19.6152 4.30911C19.4872 3.80717 19.3587 3.30579 19.2302 2.80458L19.2298 2.80283L19.2296 2.80215L19.2295 2.80162C18.9985 1.90062 18.7677 1.00014 18.5405 0.0978376C18.5183 0.00092559 18.4874 0.000925589 18.4122 0.000925589H16.5767C16.5625 -0.00104679 16.548 0.000142007 16.5343 0.00440664C16.5206 0.00867128 16.508 0.015906 16.4974 0.0255915C16.4869 0.0352769 16.4786 0.047173 16.4732 0.0604257C16.4678 0.0736784 16.4654 0.0879591 16.4662 0.102243C15.9737 2.03461 15.4769 3.96551 14.9757 5.89494C14.3535 8.32655 13.7358 10.7288 13.1225 13.1017C12.5092 15.4745 11.8974 17.8504 11.287 20.2291C11.2458 20.3906 11.2006 20.552 11.1554 20.7135L11.1554 20.7135L11.1553 20.7136L11.1553 20.7136L11.1553 20.7137ZM17.4967 4.49412C18.452 7.98883 19.4088 11.4835 20.3671 14.9782H14.5953L17.4967 4.49412ZM27.9876 0.000949358H26.2185V20.9692H28.0761V5.26063C28.0901 5.27413 28.1007 5.29073 28.107 5.30909L34.0911 20.9031C34.0964 20.9253 34.1097 20.9447 34.1285 20.9577C34.1472 20.9707 34.1702 20.9764 34.1928 20.9736H35.962V0.000949358H34.1088V15.7183C34.0929 15.7021 34.0809 15.6825 34.0734 15.6611C33.4012 13.9196 32.7304 12.1678 32.061 10.4058C30.7371 6.96393 29.4147 3.52062 28.0938 0.0758359C28.0885 0.0525078 28.0747 0.0319544 28.0551 0.0181298C28.0355 0.00430518 28.0115 -0.00181402 27.9876 0.000949358ZM49.6078 15.7021L49.6078 15.7022C49.6007 15.7487 49.5935 15.7951 49.5887 15.8416C49.5277 16.4102 49.3785 16.966 49.1464 17.4891C48.823 18.1771 48.3729 18.7987 47.8195 19.3216C47.3662 19.7674 46.8416 20.1351 46.2671 20.4096C45.7774 20.644 45.2559 20.8058 44.7192 20.8898C44.3112 20.9542 43.898 20.9793 43.4852 20.9647C42.4767 20.9313 41.4935 20.6419 40.6289 20.1238C39.7643 19.6057 39.047 18.8762 38.5449 18.0045C38.5295 17.985 38.5211 17.961 38.5211 17.9362C38.5211 17.9114 38.5295 17.8874 38.5449 17.8679L39.6462 16.1059L39.6816 16.053C39.7112 16.1304 39.7386 16.2082 39.7659 16.2858C39.8241 16.4511 39.8819 16.6151 39.9602 16.771C40.227 17.3707 40.6389 17.895 41.1592 18.2971C41.6794 18.6992 42.2917 18.9664 42.9412 19.0749C44.0025 19.272 45.099 19.0451 45.9937 18.4433C46.8883 17.8416 47.5093 16.9133 47.7222 15.8592C47.9123 14.9591 47.771 14.021 47.3242 13.2161C47.0406 12.6945 46.6431 12.2429 46.161 11.8946C45.5053 11.4383 44.7793 11.0917 44.0115 10.8682C43.94 10.8459 43.8684 10.8237 43.7968 10.8016L43.7968 10.8015C43.3458 10.6619 42.8942 10.5221 42.4591 10.3396C41.6896 10.0367 40.9731 9.61445 40.3361 9.08856C39.584 8.4809 39.016 7.67724 38.6953 6.76708C38.5761 6.39863 38.5033 6.01687 38.4785 5.63056C38.4303 5.00367 38.4917 4.37321 38.6599 3.76721C38.8329 3.13468 39.1339 2.54406 39.5444 2.0316C40.0992 1.32166 40.8248 0.762587 41.6541 0.406122C42.0916 0.223044 42.5534 0.104331 43.0252 0.0537151C43.5244 -0.0101671 44.0298 -0.0101671 44.529 0.0537151C45.5928 0.196025 46.5774 0.691041 47.3242 1.45894C47.5795 1.71899 47.8118 2.00049 48.0186 2.30031C48.0313 2.31413 48.0384 2.33221 48.0384 2.35097C48.0384 2.36973 48.0313 2.38781 48.0186 2.40163L46.9261 4.11521C46.9192 4.12827 46.9102 4.14016 46.8996 4.15045C46.8642 4.0785 46.8308 4.00557 46.7974 3.93264C46.7306 3.78679 46.6637 3.64093 46.5812 3.5029C46.336 3.07948 45.9977 2.71685 45.5917 2.4422C45.1858 2.16756 44.7226 1.98802 44.2371 1.91707C43.5167 1.77698 42.7699 1.88902 42.123 2.23424C41.6717 2.45794 41.2777 2.78141 40.9711 3.17993C40.6644 3.57846 40.4533 4.0415 40.3538 4.53369C40.2489 5.00388 40.261 5.49247 40.3889 5.95696C40.5169 6.42144 40.7569 6.84775 41.088 7.19877C41.8842 8.09628 42.9392 8.72704 44.1088 9.00486C45.0154 9.21318 45.8849 9.55779 46.6873 10.0268C47.5447 10.5237 48.2709 11.2168 48.8058 12.0488C49.1828 12.6496 49.4312 13.3214 49.5356 14.0223C49.5536 14.1509 49.5676 14.2776 49.5816 14.4049L49.5816 14.4052C49.5882 14.4653 49.5949 14.5255 49.6019 14.5861C49.5999 14.6081 49.5999 14.6302 49.6019 14.6522L49.6329 15.4583C49.6329 15.5396 49.6204 15.6209 49.6078 15.7021ZM50.7431 9.91656V11.0134L50.7552 11.1155C50.7692 11.2347 50.7845 11.3641 50.805 11.4936C50.9507 13.2746 51.5824 14.9822 52.6316 16.4317C53.7249 18.0138 55.2228 19.2761 56.9704 20.0879C57.861 20.4836 58.8089 20.7363 59.7789 20.8368C60.4965 20.9095 61.2196 20.9095 61.9372 20.8368C63.451 20.7073 64.9094 20.208 66.1832 19.3831C67.7565 18.3694 69.0479 16.9771 69.9381 15.3348C70.4653 14.3745 70.8243 13.3317 70.9996 12.2513C71.1351 11.4408 71.1781 10.6177 71.1279 9.79762C71.0442 7.86954 70.3936 6.00842 69.257 4.44543C68.1552 2.87463 66.653 1.62472 64.905 0.824445C64.0484 0.444082 63.1386 0.196015 62.207 0.088795C61.4251 0.00291985 60.636 0.00291985 59.8541 0.088795C58.5336 0.210221 57.2554 0.616046 56.108 1.27817C54.3425 2.29789 52.8934 3.78241 51.9195 5.56873C51.3836 6.54679 51.0257 7.61164 50.8625 8.71397C50.8271 8.96064 50.8035 9.21123 50.7799 9.46182C50.7681 9.58713 50.7563 9.71244 50.7431 9.83727C50.7451 9.86366 50.7451 9.89016 50.7431 9.91656ZM53.0739 13.4538C52.7344 12.5304 52.5549 11.5562 52.5432 10.5729V10.5377C52.5202 9.38419 52.7313 8.23797 53.1637 7.16767C53.5961 6.09737 54.241 5.12502 55.0597 4.30887C55.8855 3.4389 56.8945 2.76192 58.0142 2.32658C58.8071 2.02636 59.6434 1.85531 60.491 1.82C61.5398 1.75862 62.5906 1.89767 63.587 2.22967C64.6924 2.60671 65.7 3.22359 66.537 4.03576C67.5694 4.98935 68.3606 6.17281 68.8457 7.48935C69.1157 8.22031 69.2809 8.9855 69.3366 9.76238C69.4257 10.9034 69.292 12.0507 68.943 13.1411C68.5742 14.2799 67.9717 15.33 67.1739 16.2246C66.3698 17.1616 65.3708 17.9132 64.2459 18.4272C63.5147 18.7507 62.7373 18.9588 61.9417 19.0439C60.6732 19.1942 59.3871 19.0526 58.1823 18.6298C56.9701 18.182 55.8818 17.4544 55.0067 16.5066C54.1578 15.6327 53.4998 14.5934 53.0739 13.4538ZM74.1309 1.85985H70.1504V0.000905355H80V1.85985H76.0195V20.9736H74.1353L74.1309 1.85985ZM1.84874 0.00128104H0V20.9739H9.7479V19.2119C9.7479 19.1194 9.7479 19.1194 9.6506 19.1194H1.84874V0.00128104Z" fill="white"/>
</svg>
