<svg width="105" height="28" viewBox="0 0 105 28" fill="none" xmlns="http://www.w3.org/2000/svg">
<path fill-rule="evenodd" clip-rule="evenodd" d="M14.6414 27.6182C14.6117 27.7259 14.582 27.8336 14.553 27.9413V28H16.9214C17.0201 28 17.084 27.9765 17.084 27.8825C17.2407 27.2951 17.3981 26.7076 17.5556 26.1201C17.8703 24.9455 18.185 23.771 18.4946 22.5964C18.4967 22.575 18.5031 22.5542 18.5134 22.5353C18.5237 22.5165 18.5377 22.5 18.5546 22.4868C18.5714 22.4736 18.5907 22.464 18.6114 22.4586C18.632 22.4532 18.6535 22.4522 18.6745 22.4555H27.3819L28.8738 27.9648H31.3409V27.9178C31.0391 26.7196 30.7314 25.5038 30.4295 24.3291L28.1076 15.143L25.7449 5.74547C25.5768 5.0754 25.4079 4.40608 25.239 3.73697L25.239 3.73662L25.2389 3.73632L25.2388 3.73605L25.2388 3.73595C24.9356 2.53446 24.6326 1.33367 24.3343 0.13045C24.3053 0.00123412 24.2647 0.00123412 24.166 0.00123412H21.7569C21.7383 -0.00139572 21.7193 0.000189343 21.7013 0.00587553C21.6833 0.0115617 21.6667 0.021208 21.6529 0.034122C21.639 0.0470359 21.6281 0.0628973 21.621 0.0805676C21.6139 0.0982379 21.6108 0.117279 21.6118 0.136324C20.9655 2.71281 20.3134 5.28734 19.6556 7.85992C18.839 11.1021 18.0282 14.3051 17.2233 17.4689C16.4183 20.6327 15.6153 23.8005 14.8142 26.9721C14.7601 27.1875 14.7007 27.4028 14.6414 27.6181L14.6414 27.6182ZM22.9644 5.99216C24.2182 10.6518 25.4741 15.3114 26.7318 19.971H19.1563L22.9644 5.99216ZM36.7337 0.00125733H34.4118V27.9589H36.8498V7.01416C36.8682 7.03216 36.8821 7.0543 36.8905 7.07877L44.7446 27.8708C44.7515 27.9004 44.7689 27.9263 44.7936 27.9436C44.8182 27.961 44.8483 27.9685 44.8781 27.9648H47.2001V0.00125733H44.7678V20.9578C44.747 20.9361 44.7311 20.91 44.7214 20.8814C43.839 18.5594 42.9586 16.2237 42.0801 13.8744C40.3425 9.28524 38.6068 4.69415 36.8731 0.101106C36.8661 0.0700019 36.848 0.0425973 36.8223 0.0241646C36.7966 0.00573177 36.765 -0.00242717 36.7337 0.00125733ZM65.1432 20.6111C65.1432 20.7195 65.1267 20.8279 65.1103 20.9362C65.1009 20.9982 65.0914 21.0601 65.0851 21.1221C65.0051 21.8803 64.8092 22.6213 64.5046 23.3187C64.0801 24.2362 63.4894 25.0649 62.7631 25.7621C62.1681 26.3566 61.4795 26.8468 60.7256 27.2129C60.0828 27.5253 59.3983 27.741 58.6939 27.8531C58.1584 27.9389 57.6161 27.9724 57.0743 27.9529C55.7507 27.9084 54.4603 27.5225 53.3255 26.8317C52.1907 26.1409 51.2491 25.1682 50.5901 24.0059C50.5699 23.98 50.5589 23.9479 50.5589 23.9149C50.5589 23.8819 50.5699 23.8498 50.5901 23.8239L52.0356 21.4745L52.082 21.404C52.1209 21.5072 52.1569 21.611 52.1928 21.7144L52.1928 21.7145C52.2692 21.9348 52.345 22.1535 52.4477 22.3614C52.7979 23.1609 53.3386 23.86 54.0214 24.3961C54.7043 24.9322 55.5079 25.2886 56.3603 25.4332C57.7532 25.6959 59.1924 25.3934 60.3666 24.5911C61.5409 23.7888 62.3559 22.5511 62.6354 21.1456C62.8848 19.9455 62.6994 18.6947 62.113 17.6215C61.7408 16.926 61.219 16.3238 60.5863 15.8595C59.7257 15.2511 58.7728 14.7889 57.7651 14.4909C57.6712 14.4612 57.5772 14.4316 57.4833 14.402C56.8913 14.2159 56.2986 14.0294 55.7275 13.7861C54.7176 13.3822 53.7772 12.8193 52.9411 12.1181C51.954 11.3078 51.2084 10.2363 50.7875 9.02275C50.6311 8.53149 50.5356 8.02248 50.5031 7.5074C50.4398 6.67155 50.5203 5.83093 50.7411 5.02293C50.9682 4.17956 51.3633 3.39206 51.9021 2.70879C52.6302 1.76221 53.5826 1.01677 54.671 0.541485C55.2452 0.297379 55.8514 0.139096 56.4706 0.0716082C57.1258 -0.013568 57.789 -0.013568 58.4442 0.0716082C59.8405 0.261354 61.1329 0.921376 62.113 1.94524C62.4481 2.29198 62.753 2.66731 63.0244 3.06707C63.0411 3.08549 63.0504 3.1096 63.0504 3.13462C63.0504 3.15963 63.0411 3.18374 63.0244 3.20216L61.5905 5.48693C61.5814 5.50435 61.5697 5.5202 61.5557 5.53392C61.5093 5.43811 61.4655 5.341 61.4217 5.24389L61.4216 5.24354C61.3338 5.04905 61.2461 4.85457 61.1377 4.67052C60.8159 4.10596 60.372 3.62245 59.8391 3.25626C59.3063 2.89006 58.6984 2.65069 58.0611 2.55608C57.1157 2.36929 56.1355 2.51868 55.2863 2.97897C54.694 3.27725 54.1769 3.70853 53.7745 4.2399C53.3721 4.77126 53.095 5.38865 52.9644 6.04491C52.8267 6.67183 52.8425 7.32328 53.0105 7.9426C53.1784 8.56191 53.4934 9.13032 53.928 9.59835C54.9729 10.795 56.3576 11.636 57.8928 12.0065C59.0827 12.2842 60.2239 12.7437 61.2771 13.3691C62.4024 14.0316 63.3555 14.9557 64.0576 16.065C64.5524 16.8661 64.8785 17.7619 65.0154 18.6963C65.0391 18.868 65.0574 19.037 65.0759 19.2069V19.207V19.2071C65.0845 19.2871 65.0932 19.3673 65.1025 19.4481C65.0998 19.4774 65.0998 19.5069 65.1025 19.5362L65.1432 20.6111ZM66.6003 13.2221V14.6846L66.6088 14.7569L66.6162 14.8203L66.6162 14.8206C66.6346 14.9796 66.6546 15.1522 66.6815 15.3248C66.8728 17.6995 67.7018 19.9762 69.079 21.9089C70.5139 24.0184 72.4799 25.7014 74.7736 26.7839C75.9426 27.3114 77.1867 27.6485 78.4598 27.7824C79.4016 27.8793 80.3507 27.8793 81.2926 27.7824C83.2794 27.6097 85.1935 26.944 86.8653 25.8441C88.9303 24.4925 90.6253 22.6361 91.7938 20.4464C92.4857 19.166 92.9568 17.7756 93.1869 16.335C93.3648 15.2544 93.4212 14.1569 93.3553 13.0635C93.2454 10.4927 92.3916 8.01122 90.8998 5.92723C89.4537 3.83282 87.482 2.16628 85.1877 1.09925C84.0635 0.592098 82.8694 0.261342 81.6467 0.118381C80.6204 0.00388127 79.5848 0.00388127 78.5585 0.118381C76.8253 0.280282 75.1477 0.821382 73.6417 1.70421C71.3245 3.06385 69.4225 5.04321 68.1444 7.42496C67.4409 8.72904 66.9712 10.1488 66.757 11.6186C66.7106 11.9475 66.6796 12.2816 66.6486 12.6157C66.6332 12.7828 66.6177 12.9499 66.6003 13.1163C66.6029 13.1515 66.6029 13.1869 66.6003 13.2221ZM69.6595 17.9384C69.2138 16.7072 68.9783 15.4083 68.9629 14.0972V14.0502C68.9327 12.5122 69.2098 10.9839 69.7773 9.55688C70.3449 8.12981 71.1913 6.83334 72.2659 5.74515C73.3497 4.58519 74.674 3.68255 76.1436 3.1021C77.1843 2.7018 78.282 2.47373 79.3944 2.42665C80.7709 2.34481 82.1502 2.53022 83.4578 2.97288C84.9088 3.4756 86.2313 4.29811 87.3298 5.381C88.6848 6.65246 89.7232 8.23041 90.3599 9.98579C90.7143 10.9604 90.9312 11.9807 91.0043 13.0165C91.1211 14.5378 90.9457 16.0676 90.4876 17.5214C90.0036 19.0399 89.2129 20.44 88.1657 21.6329C87.1104 22.8822 85.7991 23.8843 84.3228 24.5696C83.363 25.0009 82.3426 25.2783 81.2984 25.3919C79.6336 25.5923 77.9455 25.4034 76.3642 24.8398C74.7732 24.2427 73.3448 23.2725 72.1962 22.0088C71.0821 20.8436 70.2184 19.4578 69.6595 17.9384ZM97.2968 2.47981H92.0723V0.00121053H105V2.47981H99.7755V27.9647H97.3026L97.2968 2.47981ZM2.42647 0.00128104H0V27.9648H12.7941V25.6154C12.7941 25.4921 12.7941 25.4921 12.6664 25.4921H2.42647V0.00128104Z" fill="#333333"/>
</svg>
